<?xml version="1.0" encoding="UTF-8"?><svg id="Layer_1" xmlns="http://www.w3.org/2000/svg" viewBox="0 0 1265 1224"><defs><style>.cls-1{fill:#bacd4c;}.cls-2{fill:#fafafb;}.cls-3{fill:#232323;}.cls-4{fill:#1e1e1e;}.cls-5{fill:#fff;}.cls-6{fill:#1b3cab;}.cls-7{fill:#b5c94f;}.cls-8{fill:#183aab;}</style></defs><path class="cls-5" d="M0,0h1265v1224H0c0-408,0-816,0-1224ZM1088.91,393.33c-.39-.3-.73-.45-.89-.7-.62-.98-1.21-1.99-1.77-3.01-12.06-21.74-25.55-42.53-40.67-62.27-51.07-66.69-114.48-118.13-190.44-153.94-57.83-27.26-118.73-42.9-182.49-47.21-25.44-1.72-50.89-1.53-76.34.54-27.92,2.27-55.49,6.55-82.66,13.36-55.69,13.94-107.6,36.6-155.72,67.91-29.13,18.96-55.99,40.75-80.71,65.18-2.28,2.25-4.45,3.55-7.84,3.16-3.78-.45-7.65-.3-11.48-.23-10.87.2-21.51,1.62-31.77,5.54-30.34,11.6-54.61,31.11-73.05,57.55-19.13,27.44-27.35,57.8-21.15,91.35,2.64,14.31,7.4,27.71,16.72,39.03,2.46,2.99,2.86,5.24,1.68,8.81-8.96,27.07-15.46,54.74-19.67,82.96-2.68,17.98-4.46,36.03-5.2,54.17-.14,3.37-1.31,5.87-3.55,8.37-18.28,20.49-29.71,44.02-31.21,71.84-1.36,25.12,4.08,48.28,19.72,68.5,1.94,2.5,3.8,5.06,5.81,7.51,9.33,11.4,19.55,21.87,32.3,29.5,2.64,1.58,4.16,3.47,5.11,6.31,4.52,13.59,9.84,26.88,15.76,39.92,42.7,93.99,107.38,169.01,194.45,224.43,71.72,45.65,150.27,71.23,234.93,77.87,27.91,2.19,55.87,1.88,83.81-.57,31.58-2.77,62.64-8.3,93.14-16.89,81.32-22.91,152.79-63.33,214.12-121.46,63.49-60.19,108.83-131.99,135.83-215.27,15.04-46.39,23.1-94.01,24.37-142.76.74-28.69-.45-57.3-4.74-85.72-.39-2.58.16-4.41,2.2-6.1,3.46-2.87,6.54-6.21,10.09-8.95,10.7-8.25,12.79-24.29,4.64-36.51-4.96-7.44-15.24-12.51-25.38-7.43-.72.36-1.49.64-2.65,1.13-2.06-6.53-3.94-12.71-2.79-19.6,1.26-7.55,1.87-15.2,2.76-22.81,1.83-15.71,3.66-31.42,5.49-47.13,1.08-9.26,2.33-18.51,3.18-27.79,1.14-12.45-6.45-21.22-18.93-22.17-6.74-.51-13.25.63-19.55,3.09-7.34,2.87-12.06,8.07-14.13,15.67-.43,1.59-.85,3.18-1.3,4.83Z"/><path class="cls-8" d="M1088.91,393.33c.44-1.65.87-3.24,1.3-4.83,2.07-7.61,6.79-12.81,14.13-15.67,6.3-2.46,12.8-3.6,19.55-3.09,12.48.95,20.07,9.72,18.93,22.17-.85,9.28-2.1,18.53-3.18,27.79-1.83,15.71-3.66,31.42-5.49,47.13-.89,7.61-1.5,15.26-2.76,22.81-1.15,6.89.73,13.07,2.79,19.6,1.17-.49,1.93-.77,2.65-1.13,10.14-5.08,20.42-.01,25.38,7.43,8.15,12.22,6.05,28.26-4.64,36.51-3.55,2.74-6.63,6.08-10.09,8.95-2.04,1.69-2.59,3.52-2.2,6.1,4.29,28.42,5.49,57.03,4.74,85.72-1.26,48.75-9.33,96.38-24.37,142.76-27,83.28-72.34,155.08-135.83,215.27-61.32,58.14-132.8,98.55-214.12,121.46-30.5,8.59-61.56,14.12-93.14,16.89-27.94,2.45-55.9,2.76-83.81.57-84.66-6.64-163.21-32.22-234.93-77.87-87.07-55.42-151.75-130.44-194.45-224.43-5.92-13.03-11.23-26.33-15.76-39.92-.95-2.84-2.47-4.73-5.11-6.31-12.74-7.63-22.97-18.1-32.3-29.5-2-2.45-3.87-5.01-5.81-7.51-15.65-20.22-21.08-43.37-19.72-68.5,1.5-27.82,12.93-51.35,31.21-71.84,2.24-2.51,3.41-5.01,3.55-8.37.74-18.15,2.52-36.2,5.2-54.17,4.21-28.22,10.7-55.89,19.67-82.96,1.18-3.56.78-5.82-1.68-8.81-9.32-11.32-14.08-24.73-16.72-39.03-6.2-33.55,2.02-63.9,21.15-91.35,18.44-26.44,42.71-45.95,73.05-57.55,10.26-3.92,20.9-5.34,31.77-5.54,3.83-.07,7.69-.21,11.48.23,3.39.4,5.56-.91,7.84-3.16,24.72-24.43,51.58-46.22,80.71-65.18,48.12-31.32,100.03-53.97,155.72-67.91,27.17-6.8,54.74-11.08,82.66-13.36,25.45-2.07,50.9-2.26,76.34-.54,63.76,4.31,124.66,19.95,182.49,47.21,75.97,35.81,139.37,87.25,190.44,153.94,15.11,19.74,28.61,40.53,40.67,62.27.56,1.02,1.15,2.02,1.77,3.01.16.26.5.4.89.7ZM665.11,594.01c-.65,7.46-1.67,14.89-1.52,22.4.14,7.2.94,14.32,3.8,21,2.66,6.21,7.24,10.63,14,11.57,11.55,1.6,22.13-1.22,31.31-8.63,11.13-8.98,17.49-21.18,22.82-34.06,1.21-2.92.27-5.2-1.94-7.12-2.17-1.89-4.69-3.18-7.46-3.89-5.62-1.42-8.78-.06-11.65,5.02-1.97,3.48-3.81,7.02-5.74,10.52-1.53,2.78-3.36,5.36-5.57,7.65-1.52,1.58-3.26,2.87-5.41,3.44-3.78,1.02-5.82-.31-6.15-4.23-.19-2.31-.11-4.67.14-6.98.92-8.44,1.94-16.87,2.96-25.3,3.85-31.9,7.73-63.79,11.56-95.69.56-4.63,1.16-9.27,1.34-13.92.25-6.19-2.59-8.85-8.83-8.59-3.16.13-6.24.81-9.34,1.51-6.14,1.39-9.52,5.08-10.18,11.33-.09.82-.35,1.63-.48,2.45-3.65,23.25-9.67,45.89-17.38,68.1-7.55,21.76-16.64,42.81-29.54,62.04-4.95,7.37-10.61,14.12-17.39,19.86-5.7,4.83-12.1,8.26-19.76,8.62-7.61.36-11.99-3.15-13.12-10.61-.57-3.78-.82-7.58-.5-11.45,1.15-13.61,3.21-27.11,4.83-40.67,2.71-22.64,5.69-45.26,8.51-67.88.52-4.13,1.1-8.27,1.23-12.42.19-5.6-2.18-7.94-7.69-8.2-4.39-.21-8.59.74-12.73,2.08-4,1.29-6.39,4.06-7.43,8.05-.42,1.61-.85,3.23-1.05,4.88-1.11,8.92-2.14,17.85-3.23,26.77-2.18,17.85-4.47,35.68-6.55,53.54-1.45,12.4-3.45,24.75-3.99,37.24-.42,9.88.23,19.66,3.62,29.05,4.35,12.03,13.45,18.43,26.19,18.57,12.27.14,23.15-4.09,33.14-10.85,12.91-8.74,22.69-20.46,31.13-33.39,6.57-10.07,11.71-20.89,16.64-31.81.46,0,.91,0,1.37,0ZM318.92,288.49c-.05.47-.1.95-.15,1.42-4.46-1.29-8.87-2.82-13.4-3.83-13.57-3.02-27.37-3.42-41.21-3-8.89.27-17.53,1.88-25.81,5.1-33.67,13.08-59.85,35.26-77.78,66.48-14.11,24.57-19.26,51.09-13.65,79.41,4.5,22.7,15.74,40.69,34.85,53.83,11.98,8.24,24.75,15.01,38,20.87,19.47,8.63,39.37,16.17,59.44,23.28,14.59,5.17,29.02,10.72,42.39,18.69,9.55,5.69,17.88,12.72,24.43,21.77,5.14,7.09,8.68,14.94,11.15,23.3,4.13,13.99,6.76,28.22,5.25,42.86-2.11,20.31-8.52,39.24-18.73,56.95-14.52,25.19-35.16,43.24-62.26,53.7-21.01,8.11-42.84,10.87-65.2,8.54-9.69-1.01-18.84-4.01-26.55-10.38-.12-.81-.17-1.64-.35-2.44-6.32-27.21-10.41-54.73-11.77-82.67-.32-6.63-.35-13.27-.79-19.9,6.54-6.44,14.55-10.37,23.03-13.47,2.69-.98,5.49-1.25,8.35-1.13,11.93.5,22.04,5.29,29.91,14.01,4.72,5.23,9.84,6.22,16.1,4.65,1.45-.36,2.88-.82,4.34-1.11,10.29-2.07,17.36-14.72,15.36-25.07-4.23-21.85-24.79-35.26-38.65-36.21-18.53-1.27-37.17-2.95-55.36,2.9,1.21-14.27,3.68-28.35,6.54-42.37,2.5-12.23,5.48-24.34,9.03-36.32,1.21-4.08,1.1-4.04-2.69-6.06-4.7-2.5-9.38-5.05-14.01-7.68-4.21-2.4-4.17-2.46-5.57,2-.15.48-.24.97-.39,1.45-9.04,30.05-15.17,60.68-18.04,91.94-.17,1.85-1.09,3.74-.16,5.95,5.18-2.61,10.04-5.12,15.2-6.97,3.29-1.17,6.56-2.46,10.17-2.01-.2.75-.84.93-1.45,1.2-14.04,6.26-25.92,15.48-36.6,26.44-24.99,25.64-38.15,55.8-34.96,92.07,1.24,14.05,4.75,27.52,12.32,39.68,7.98,12.81,17.63,24.18,28.68,34.43,8.53,7.92,18.22,13.9,29.03,18.12,16.67,6.51,34.05,8.96,51.81,8.85,20.67-.13,40.59-4.27,59.87-11.77,39.62-15.41,73.21-38.42,96.05-75.29,11.03-17.79,20.5-36.21,24.5-56.99,3.03-15.76,3.95-31.68,3.66-47.72-.27-15.34-3.18-30.05-9.27-44.15-12.25-28.36-31.16-50.45-59.15-64.4-14.16-7.06-28.6-13.42-43.22-19.41-19.07-7.82-38.4-15.07-56.91-24.19-9.41-4.63-18.56-9.75-25.75-17.66,1.29-2.7,2.56-5.41,3.87-8.11,18.76-38.73,42.32-74.26,70.97-106.38.94-1.06,2.47-1.89,2.01-3.74,8.4,2.97,15.21,7.94,17.7,16.8,2.07,7.38,2.33,15.07.92,22.76-.52,2.85-1.8,4.95-4.08,6.54-4.36,3.05-8.74,6.07-13.13,9.08-5.49,3.75-11.07,7.37-16.48,11.24-3.2,2.29-3.39,3.11-1.28,6.09,6.17,8.71,13.62,15.4,25.13,15.9,4,.17,7.95.1,11.94-.13,18.5-1.05,32.03-10.32,41.41-25.74,10.53-17.31,11.19-36.24,7.36-55.51-1.7-8.57-7.25-15.2-12.78-21.68-6.45-7.56-14.49-13.14-22.85-18.33,1.07-.15,1.7-.98,2.45-1.62,5.7-4.86,11.27-9.89,17.12-14.57,55.38-44.25,117.49-74.61,186.66-90.37,27.98-6.37,56.33-10.14,84.98-11.1,25.14-.85,50.23.16,75.23,3.42,28.78,3.75,56.99,9.87,84.58,18.87,39.64,12.92,76.83,30.9,111.57,53.96,1.15.76,2.12,2.22,4.1,1.64,2.61-8.79,9.42-13.11,18.61-15.88-56.31-39.14-117.34-65.31-183.89-77.9-101.89-19.27-200.45-8.01-295.02,34.95-47.4,21.53-90.12,50.24-128.49,86.11,4.28,2.45,8.39,3.52,11.76,6.02ZM1120.92,596.04v-5.69c-1.65,2.17-1.82,4.37-1.61,6.63-1.37,11.06-2.79,22.12-4.09,33.19-1.79,15.21-3.21,30.46-6.09,45.52-3.33,17.4-7.93,34.41-16.58,50.02-2.7,4.86-4.48,9.85-5.74,15.27-19.3,83.05-58.35,155.52-117.39,216.96-49.49,51.51-107.97,89.46-175.13,113.91-43.8,15.94-89.04,24.74-135.53,26.91-21.12.98-42.25.46-63.36-1.49-23.57-2.17-46.85-5.99-69.78-11.77-62.83-15.84-119.89-43.63-170.99-83.53-37.96-29.64-70.62-64.29-97.73-104.14-16.53-24.3-30.8-49.85-42.28-76.92-1.19-2.79-2.75-3.7-5.63-3.67-5.66.05-11.3-.48-16.91-1.26-1.93-.26-3.81-1.37-5.81-.59-.45.91.02,1.63.34,2.37,3.39,7.96,6.58,16.02,10.22,23.87,31.42,67.77,76.1,125.3,133.8,172.68,44.86,36.83,94.81,64.6,149.65,83.49,32.18,11.08,65.21,18.54,99.04,22.52,16.21,1.91,32.46,3.2,48.76,3.52,30.18.58,60.16-1.74,89.97-6.67,40.6-6.72,79.69-18.42,117.2-35.27,64.9-29.16,120.85-70.52,167.73-124.1,41.06-46.92,71.94-99.81,92.64-158.63,11.59-32.93,19.5-66.72,23.66-101.4,1.57-13.07,2.56-26.17,3.19-39.32.99-20.84.57-41.62-1.54-62.37ZM1113.65,543.81c-.29-.16-.57-.33-.86-.49.21-2.48.36-4.97.65-7.44,1.57-13.56,3.18-27.11,4.76-40.67,1.77-15.21,3.51-30.43,5.3-45.64,2.15-18.35,4.35-36.7,6.48-55.06.21-1.81.25-3.67.14-5.49-.26-4.4-2.47-6.61-6.92-6.93-4.38-.32-8.6.58-12.78,1.8-4.61,1.35-7.4,4.35-8.3,9.02-.6,3.1-.84,6.26-1.44,9.36-5.38,27.85-12.96,55.07-23.66,81.36-6.35,15.6-13.55,30.79-23.31,44.61-6.17,8.74-12.74,17.12-22.07,22.82-4.47,2.73-9.22,4.63-14.5,4.89-7.23.35-11.32-2.73-12.92-9.75-1.13-4.92-1.12-9.92-.55-14.91.49-4.3,1.01-8.6,1.56-12.89,2.17-17.18,4.34-34.35,6.52-51.53,2.11-16.68,4.25-33.36,6.33-50.04.22-1.81.25-3.67.11-5.49-.29-3.98-2.34-6.19-6.22-6.49-5.38-.42-10.63.4-15.63,2.49-2.95,1.23-4.86,3.47-5.73,6.52-.5,1.76-.96,3.55-1.19,5.36-1.44,11.4-2.8,22.8-4.2,34.2-2.18,17.68-4.47,35.34-6.55,53.03-1.54,13.05-3.88,26.05-3.27,39.28.31,6.83,1.15,13.59,3.54,20.07,4.71,12.78,13.83,19.14,27.39,19.1,5.71-.02,11.24-1.14,16.63-2.94,14.55-4.86,25.67-14.48,35.34-25.98,12-14.28,20.73-30.52,28.02-47.6.72-1.69.99-3.71,2.81-5.16,0,1.53.11,2.71-.02,3.85-2.4,21.01-4.85,42.02-7.23,63.03-.28,2.47-1.39,4.29-3.1,6.02-8.54,8.66-16.91,17.48-25.48,26.1-13.06,13.14-25.2,27.04-36.03,42.08-9.37,13-17.95,26.49-23.5,41.62-4.98,13.57-6.68,27.5-2.64,41.66,3.18,11.14,10.33,18.8,21.16,22.94,7.69,2.94,15.57,3.16,23.58,1.55,15.11-3.02,28.36-9.28,38.38-21.48,8.19-9.98,13.06-21.6,16.85-33.73,5.4-17.23,7.88-35.04,9.97-52.91,2.31-19.68,4.64-39.35,6.8-59.05.3-2.7,1.29-4.61,3.17-6.44,12.58-12.15,24.93-24.56,38.36-35.77,4.58-3.83,6.58-11.18,3.93-17.19-3.16-7.16-8.09-8.68-14.2-3.93-5.12,3.98-9.99,8.29-14.88,12.56-3.6,3.14-7.05,6.45-10.56,9.68ZM870.89,555.16c.95,2.6.43,4.4.42,6.17-.03,5.33-.28,10.67-.13,15.99.18,6.36,1.24,12.6,3.99,18.42,3.14,6.67,8.31,10.77,15.71,11.58,10.04,1.1,19.14-1.76,27.36-7.35,12.43-8.46,18.98-21.12,23.99-34.75.99-2.7.43-5.55-1.83-7.33-7.74-6.11-14.27-8.13-18.8,1.95-1.9,4.22-4.63,8.08-7.16,11.99-1.25,1.94-2.84,3.69-4.38,5.43-1.11,1.26-2.55,2.14-4.17,2.65-4.02,1.28-6.54-.07-7.32-4.23-.68-3.63-.34-7.3.13-10.95.55-4.29,1.08-8.59,1.6-12.89,2.14-17.69,4.26-35.37,6.4-53.06,2.18-18.01,4.4-36.03,6.58-54.04,2.14-17.69,4.24-35.38,6.39-53.06,2.18-18.01,4.4-36.03,6.6-54.04,2.2-18.01,4.4-36.03,6.56-54.04.95-7.93,2-15.86,2.66-23.83.58-7.02-2.96-10.26-9.94-9.44-2.96.35-5.89,1.02-8.82,1.65-5.71,1.22-8.91,4.64-9.6,10.58-1.49,12.73-3.21,25.44-4.76,38.16-2.5,20.49-4.91,41-7.4,61.5-2.89,23.8-5.83,47.6-8.72,71.4-.53,4.37-.46,4.37-4.67,3.55-16.75-3.25-33.36-3.38-49.82,1.87-23.57,7.52-40.39,23.29-53.26,43.73-11.25,17.86-17.86,37.52-20.84,58.35-2.38,16.61-2.25,33.23,1.84,49.63,2.67,10.68,7.18,20.4,15.51,27.96,7.85,7.13,16.97,10.07,27.56,8.64,7.96-1.08,15-4.28,21.55-8.69,11.23-7.57,19.75-17.75,27.35-28.81,7.37-10.73,13.51-22.14,19.41-34.7ZM511.12,793.56c0,21.83,0,43.67,0,65.5,0,6.77-.07,5.72,5.55,5.72,35.97.02,71.94.01,107.91.01,1,0,2-.06,3,0,1.95.13,2.7-.81,2.62-2.68-.06-1.33,0-2.67,0-4,0-43.17-.08-86.33.09-129.5.02-6.11-2.53-10.15-7.39-13.13-5-3.07-10.46-5.09-16.13-6.51-21.51-5.35-43.19-5.46-64.9-1.69-8.36,1.45-16.56,3.73-23.85,8.42-4.7,3.02-7.04,6.95-6.98,12.83.24,21.66.09,43.33.1,65ZM769.33,793.53c0-21.81-.19-43.63.11-65.44.09-6.81-2.95-10.96-8.41-14.03-4.96-2.79-10.28-4.68-15.78-6.04-18.82-4.67-37.87-4.98-56.98-2.66-10.08,1.22-19.97,3.47-29.05,8.39-5.86,3.18-9.02,7.39-8.97,14.66.27,43.46.13,86.92.13,130.39,0,1,.09,2.01-.01,3-.27,2.5.96,3.28,3.23,3.03.66-.07,1.33,0,2,0,36.11,0,72.21,0,108.32,0,1.16,0,2.33,0,3.49-.02,1.18-.02,1.87-.6,1.9-1.81.04-1.33.03-2.66.03-4,0-21.81,0-43.63,0-65.44ZM474.9,516.97c2.49-19.94,4.89-39.07,7.28-58.21.47-3.8,1.13-7.6,1.26-11.41.19-5.66-2.52-8.24-8.15-8.34-3.7-.07-7.26.73-10.83,1.59-6.17,1.49-9.06,5.52-9.77,11.69-2.55,22.16-5.24,44.31-7.89,66.47-.48,3.98-.5,4.01-4.65,4.87-7,1.44-14.01,2.85-21.03,4.24-2.36.47-4.54,1.32-5.99,3.29-4.66,6.34-5.72,13.39-3.46,20.83.97,3.21,3.26,4.27,6.67,3.7,1.97-.33,3.9-.83,5.86-1.21,5.97-1.18,11.95-2.34,17.69-3.47.91,1.14.67,2,.58,2.8-1.35,12.08-2.72,24.15-4.09,36.22-2.43,21.34-4.98,42.66-7.23,64.02-.91,8.7.11,17.31,3.4,25.51,3.34,8.34,9.31,13.76,18.25,15.29,4.93.84,9.95.64,14.9-.39,11.21-2.33,20.86-7.43,29.08-15.49,9.43-9.25,16.5-19.97,21.32-32.23,1.21-3.09,1.59-6.3-.77-8.97-3.31-3.73-7.81-4.96-12.61-4.9-4.11.06-5.89,3.28-7.61,6.38-.64,1.16-1.17,2.4-1.81,3.56-4.58,8.22-10.03,15.72-17.78,21.29-2.31,1.66-4.72,3.14-7.52,3.82-6.53,1.57-10.37-1-11.18-7.68-.52-4.31-.2-8.64.33-12.96,2.22-17.84,4.35-35.7,6.53-53.55,1.81-14.88,3.61-29.75,5.49-44.62.53-4.18.65-4.17,4.66-4.99,11.41-2.32,22.75-5.05,34.25-6.8,8.63-1.32,11.94-6.18,13.21-13.88.38-2.28.4-4.66.28-6.98-.32-6.4-3.04-8.48-9.44-7.41-.82.14-1.62.37-2.43.54-12.05,2.42-24.09,4.83-36.8,7.37ZM790.5,809.51v-68.5c0-7.98,0-8-7.83-7.96-6.15.03-5.86-.85-5.86,5.95,0,43.5.01,87,0,130.5,0,7.51.77,6.8-6.58,6.81-31.47.02-62.95.03-94.42-.03-3.17,0-5.54.42-7.53,3.47-2.65,4.07-6.74,6.83-11.08,9.11-7.65,4.02-15.83,4.9-24.26,4.24-10.22-.8-19.17-4.68-25.66-12.71-2.65-3.28-5.27-4.18-9.22-4.16-32.14.14-64.28.08-96.42.07-4.95,0-4.95-.03-4.99-4.84,0-1,0-2,0-3,0-42.33,0-84.66,0-126.99,0-9.29,0-9.24-9.37-8.47-1.87.15-2.75.77-2.66,2.68.06,1.33,0,2.67,0,4,0,44.33,0,88.66,0,132.99,0,3.17.12,6.34-.04,9.5-.12,2.5.61,3.82,3.33,3.54,1.15-.12,2.33-.02,3.5-.02,33.14,0,66.28.11,99.42-.11,5.21-.03,8.87,1.39,12.6,5.15,8.44,8.52,18.76,13.61,30.98,14.36,15.51.95,28.37-4.85,38.91-15.79,2.78-2.89,5.48-3.66,9.14-3.66,33.81.08,67.61.05,101.42.05,1.33,0,2.67-.06,4,0,1.93.09,2.73-.81,2.63-2.7-.06-1.16,0-2.33,0-3.5,0-23.33,0-46.66,0-70ZM947.77,264.78c-1.15,9.05-2.19,17.27-3.23,25.49-.04.33-.06.67-.12.99-.36,1.82.24,3.23,1.68,4.38,1.04.83,1.96,1.8,2.94,2.71,46.72,43.12,83.24,93.6,109.27,151.65,3.19,7.12,6.15,14.35,9.23,21.53,1.31-.61,1.44-1.83,1.83-2.89,3.32-9.06,6.28-18.23,9.08-27.47.9-2.96.59-5.4-.67-8.11-27.55-58.77-65.31-110.02-113.14-153.84-5.25-4.81-10.49-9.65-16.85-14.44ZM447.27,990.07c11.54.1,19.4-6.26,24.32-16.74,4.7-10.01,1.07-18.41-5.61-26.05-.66-.75-1.34-1.48-2.08-2.15-4.42-4.04-8.87-8.05-13.3-12.08-2.22-2.01-4.5-3.96-6.23-6.44-1.21-1.73-1.93-3.64-.61-5.56,1.28-1.87,3.31-2.11,5.37-1.73,2.81.53,5.35,1.74,7.77,3.26,3.76,2.36,5.78,5.55,4.66,10.05-.45,1.83.03,2.72,1.6,3.56,6,3.23,12,6.48,17.89,9.91,2.13,1.24,2.86.33,3.71-1.42,3.09-6.36,3.4-12.77.49-19.26-1.51-3.37-3.55-6.43-6.11-9.07-10.3-10.64-22.75-17.21-37.48-19.03-7.42-.92-14.43.72-19.65,6.43-9.81,10.71-10.91,22.08-1.94,33.79,1.01,1.32,2.12,2.58,3.32,3.72,4.11,3.89,8.27,7.72,12.44,11.54,2.45,2.25,5.01,4.4,7.02,7.07,1.24,1.65,2.09,3.45.82,5.51-1.36,2.22-3.37,2.41-5.66,1.84-3.93-.99-7.44-2.78-10.68-5.2-3.83-2.85-6.05-6.24-3.92-11.12.91-2.08-.12-2.98-1.78-3.87-5.71-3.07-11.35-6.27-17.06-9.36-3.03-1.64-3.12-1.6-4.71,1.69-4.73,9.77-4.12,18.96,3.01,27.45,7.45,8.88,17.03,14.76,27.43,19.45,5.19,2.34,10.66,3.72,16.98,3.81ZM677.5,1030.07c1.93-.03,3.05,1.11,4.36,1.73,15.05,7.1,33.5-1.31,37.19-17.32,2.73-11.87,1.34-23.63-3.85-34.57-8.12-17.1-31.77-19.58-43.77-4.9-.67.82-.97,2.26-2.58,1.9-.41-1.08-.83-2.16-1.24-3.25-1.42-3.84-1.42-3.86-5.19-3.5-2.15.21-4.28.57-6.43.77-3.12.29-7.23-.39-8.99,1.68-2.02,2.37-.17,6.34.18,9.6.07.66.14,1.32.21,1.99,2.67,24.47,5.34,48.94,8.03,73.41.39,3.53.43,3.65,3.88,3.32,6.29-.59,12.56-1.37,18.84-2,1.64-.16,2.44-.84,2.24-2.53-.16-1.32-.34-2.64-.48-3.96-.8-7.42-1.59-14.84-2.39-22.37ZM746.77,963.05c-1.59-.71-1.88-1.92-2.48-2.88q-2.31-3.67-6.66-2.31c-3.65,1.15-7.3,2.27-10.93,3.46-4.02,1.32-4.05,1.36-2.69,5.59,4.71,14.73,9.44,29.45,14.17,44.17,3.66,11.4,7.37,22.78,10.92,34.21.72,2.33,1.61,2.77,3.91,1.97,5.8-2.03,11.72-3.73,17.56-5.65,3.15-1.03,3.17-1.12,2.07-4.63-1.64-5.24-3.36-10.45-5.02-15.67-.83-2.63-1.61-5.27-2.37-7.78,1.27-.85,1.99-.26,2.73-.03,10,3.08,18.73.08,26.57-6,4.79-3.72,7.41-9.01,7.87-15.08,1.03-13.51-2.87-25.68-10.85-36.47-4.13-5.59-9.87-8.75-16.95-9.35-11.85-1-21.7,4.73-27.83,16.45ZM632.77,256.05c-.99-.83-.67-1.88-.67-2.81.03-7.16.12-14.32.16-21.47.03-4.72,0-4.75-4.46-4.78-5.49-.04-10.98-.07-16.47-.06-3.93,0-3.96.04-4,4.16-.22,20.31-.43,40.62-.63,60.92-.07,6.99.05,13.99-.16,20.97-.08,2.69.87,3.45,3.42,3.43,5.82-.05,11.64.18,17.46.22,4.04.03,4.09-.02,4.12-4.13.09-10.65.14-21.31.19-31.96,0-2,0-3.99.76-5.89,1.77-4.44,6.01-6.8,10.85-5.99,4.11.69,6.14,3.54,6.27,8.81.03,1.16,0,2.33,0,3.5-.05,10.82-.04,21.64-.2,32.46-.04,2.57.77,3.51,3.4,3.46,5.98-.13,11.98.04,17.96.01,3.51-.02,3.59-.08,3.62-3.6.09-9.32.13-18.64.16-27.97.02-4.99.2-10-.09-14.98-.6-10.47-6.11-17.44-15.32-19.64-7.95-1.89-15.5-.73-22.6,3.36-1.23.71-2.15,2.12-3.79,1.97ZM517.32,957.31c.36-1.69.48-2.49.71-3.26,2.24-7.48,4.36-15.01,6.83-22.42.89-2.67.15-3.49-2.28-4.16-5.6-1.55-11.13-3.37-16.7-5.03-3.95-1.18-4.01-1.15-5.19,2.7-2.24,7.31-4.42,14.64-6.64,21.96-5.62,18.61-11.25,37.23-16.86,55.85-1.19,3.95-1.17,4.01,2.62,5.18,5.55,1.72,11.12,3.41,16.69,5.05,3.22.95,3.29.91,4.33-2.46,3.23-10.48,6.41-20.98,9.62-31.47.34-1.11.62-2.26,1.13-3.29,2.29-4.64,7.28-6.56,12.24-4.78,4.28,1.54,5.85,5.29,4.48,10.72-.24.97-.57,1.91-.86,2.86-1.79,5.88-3.58,11.77-5.37,17.65-1.45,4.77-2.92,9.54-4.35,14.31-.47,1.56-.55,2.81,1.56,3.42,6.38,1.83,12.72,3.84,19.07,5.79,1.77.55,2.79.07,3.27-1.84.69-2.74,1.61-5.42,2.42-8.12,3.29-10.99,6.88-21.89,9.77-32.98,3.5-13.43-2.15-22.93-15.3-26.9-6.91-2.09-13.73-1.59-21.19,1.23ZM708.81,293.97c4.71.86,9.27,1.69,13.82,2.53,10.3,1.91,20.62,3.75,30.89,5.81,2.24.45,3.03-.22,3.29-2.26.36-2.8.92-5.59,1.16-8.4,1.09-12.71-4.49-22.87-15.91-28.63-8.79-4.43-18.21-6.46-28.01-5.82-12.06.79-21.25,6.29-26.3,17.65-2.73,6.16-3.95,12.74-3.91,19.45.06,10.2,4.18,18.54,12.93,23.97,11.88,7.37,24.94,9.79,38.77,7.99,1.47-.19,2.93-.6,4.35-1.06,7.7-2.49,12.68-7.65,15.06-15.39.55-1.8.28-2.83-1.74-3.19-6.38-1.16-12.74-2.4-19.11-3.61-1.49-.28-2.48.07-3.05,1.7-.8,2.32-2.47,4.07-4.83,4.72-5.28,1.45-10.36.68-14.6-2.81-3.94-3.25-3.94-7.74-2.8-12.65ZM875.17,936.01c-2.86-6.69-6.7-12.11-11.29-16.02-4.59-3.9-9.82-6.36-15.92-6.22-17.01.38-30.38,7.9-40,21.72-4.71,6.76-5.32,14.57-3.04,22.53,1.87,6.49,5.06,12.31,9.32,17.5,6.23,7.58,14.25,11.61,24.11,10.52,15.81-1.74,28.57-9.29,38.47-21.68,1.46-1.83,2.29-4.04,3.08-6.25,1.95-5.49,1.22-10.82-.95-16.05-.64-1.55-1.45-2.47-3.39-1.34-5.46,3.19-11,6.24-16.54,9.29-1.5.83-2.31,1.79-1.66,3.58.72,1.97.69,4.08-.27,5.85-2.78,5.09-7.42,7.74-13.01,8.01-5.22.25-8.43-3.08-10.68-7.87,14.07-7.94,27.94-15.76,41.76-23.57ZM550.94,325.45c7.62-1.37,14.83-2.62,22.01-3.99,3.2-.61,3.27-.74,2.66-4.27-1.79-10.33-3.65-20.65-5.51-30.97-1.44-8.03-2.95-16.04-4.37-24.07-.55-3.12-.37-3.28,2.79-3.94.49-.1.99-.12,1.48-.21,6.06-1.07,12.12-2.11,18.18-3.22,3.99-.73,4.03-.79,3.39-4.7-.75-4.6-1.54-9.19-2.41-13.78-.74-3.94-.81-4.03-4.71-3.34-15.88,2.81-31.76,5.69-47.63,8.53-8.84,1.58-17.69,3.12-26.52,4.73-3.72.68-3.71.75-3.05,4.53.8,4.59,1.59,9.19,2.41,13.77.73,4.03.76,4.13,4.8,3.45,6.56-1.1,13.09-2.35,19.64-3.53q3.73-.67,4.43,3.17c.36,1.96.69,3.94,1.04,5.9,2.96,16.38,5.93,32.76,8.87,49.14.3,1.69.28,3.57,2.49,2.8ZM636.58,1001.02c-.06-16.3-7.89-26.97-23.04-31.45-8.23-2.43-16.64-3.23-25.14-1.54-12.17,2.43-20.33,9.36-23.81,21.46-1.3,4.51-1.83,9.16-1.85,13.81-.05,14.38,7.34,24.82,20.88,29.61,7.46,2.64,15.24,3.55,23.1,2.82,16.1-1.5,25.77-10.37,29.03-26.18.61-2.96.7-5.94.82-8.53ZM446.2,302.98c.04,10.87,8.41,19.2,19.28,19.18,10.71-.02,19.09-8.61,19-19.48-.09-10.59-8.41-18.83-19.05-18.86-10.97-.03-19.27,8.24-19.23,19.15ZM908.48,804.6c0-10.75-8.66-19.39-19.29-19.27-10.45.12-18.98,8.7-19.03,19.14-.05,10.77,8.45,19.4,19.14,19.42,10.82.02,19.19-8.4,19.18-19.29ZM404.93,804.79c.66-9.16-7.01-19.27-19.07-19.41-10.44-.13-19.03,8.38-19.17,18.89-.15,10.84,8.22,19.53,18.89,19.61,10.91.09,19.3-8.18,19.36-19.09ZM827.77,283.82c-10.89-.07-19.25,8.24-19.27,19.15-.02,10.55,8.3,19.03,18.81,19.19,10.85.16,19.34-8.11,19.5-18.98.16-10.9-8.08-19.28-19.04-19.35Z"/><path class="cls-5" d="M189.69,747.48c7.71,6.38,16.87,9.37,26.55,10.38,22.36,2.33,44.19-.43,65.2-8.54,27.1-10.46,47.74-28.51,62.26-53.7,10.2-17.71,16.62-36.64,18.73-56.95,1.52-14.63-1.12-28.86-5.25-42.86-2.47-8.36-6.01-16.21-11.15-23.3-6.56-9.05-14.88-16.08-24.43-21.77-13.37-7.97-27.8-13.53-42.39-18.69-20.07-7.11-39.97-14.66-59.44-23.28-13.25-5.87-26.02-12.63-38-20.87-19.11-13.14-30.35-31.12-34.85-53.83-5.61-28.32-.46-54.84,13.65-79.41,17.93-31.23,44.11-53.41,77.78-66.48,8.29-3.22,16.92-4.83,25.81-5.1,13.84-.42,27.63-.02,41.21,3,4.53,1.01,8.93,2.54,13.4,3.83,1.84,1.16,3.64,2.45,6,2.16l-.1-.08c-.13.88.54.91,1.12,1.04l-.09-.06c.72.48,1.44.95,2.16,1.43.39.39.83.65,1.41.55,8.36,5.19,16.39,10.77,22.85,18.33,5.53,6.48,11.08,13.12,12.78,21.68,3.83,19.27,3.17,38.2-7.36,55.51-9.38,15.42-22.91,24.69-41.41,25.74-3.99.23-7.94.3-11.94.13-11.51-.49-18.95-7.19-25.13-15.9-2.11-2.97-1.92-3.8,1.28-6.09,5.41-3.87,10.99-7.49,16.48-11.24,4.39-3,8.77-6.03,13.13-9.08,2.28-1.59,3.55-3.7,4.08-6.54,1.42-7.68,1.16-15.37-.92-22.76-2.49-8.86-9.3-13.83-17.7-16.8-10.14-4.61-20.47-2.56-30.8-.89-5.05.06-9.87,1.34-14.52,3.13-20.53,7.93-36.07,21.52-46.07,41.22-2.63,5.18-5.2,10.48-5.3,16.47-.13,7.48-.18,14.96.96,22.39.63,4.09,1.06,8.21,2.95,11.99,2.47,9.87,8.51,17.35,15.94,23.91,7.19,7.92,16.34,13.03,25.75,17.66,18.52,9.12,37.84,16.37,56.91,24.19,14.62,5.99,29.06,12.35,43.22,19.41,27.98,13.95,46.9,36.05,59.15,64.4,6.09,14.1,9,28.81,9.27,44.15.28,16.04-.63,31.96-3.66,47.72-4,20.77-13.47,39.19-24.5,56.99-22.85,36.87-56.43,59.88-96.05,75.29-19.28,7.5-39.2,11.64-59.87,11.77-17.76.11-35.15-2.34-51.81-8.85-10.82-4.22-20.51-10.2-29.03-18.12-11.04-10.25-20.7-21.63-28.68-34.43-7.57-12.16-11.09-25.63-12.32-39.68-3.19-36.27,9.97-66.43,34.96-92.07,10.68-10.96,22.56-20.18,36.6-26.44.6-.27,1.25-.45,1.45-1.2l-.08.07c18.19-5.85,36.84-4.16,55.36-2.89,13.85.95,34.42,14.35,38.65,36.21,2,10.35-5.06,23-15.36,25.07-1.46.29-2.89.75-4.34,1.11-6.26,1.57-11.38.58-16.1-4.65-7.87-8.72-17.98-13.51-29.91-14.01-2.86-.12-5.66.15-8.35,1.13-8.48,3.1-16.49,7.03-23.03,13.47-16.01,12.69-22.69,29.44-21.59,49.59-.36,3.77-.15,7.47,1.29,11.02,2.98,9.6,7.81,18.28,13.54,26.43,5.19,7.39,11.88,13.32,19.67,17.96Z"/><path class="cls-1" d="M1120.92,596.04c2.11,20.75,2.54,41.53,1.54,62.37-.63,13.15-1.62,26.25-3.19,39.32-4.16,34.68-12.07,68.47-23.66,101.4-20.7,58.82-51.59,111.71-92.64,158.63-46.88,53.58-102.83,94.94-167.73,124.1-37.51,16.85-76.6,28.55-117.2,35.27-29.8,4.93-59.78,7.25-89.97,6.67-16.3-.31-32.55-1.61-48.76-3.52-33.83-3.98-66.86-11.44-99.04-22.52-54.84-18.89-104.79-46.66-149.65-83.49-57.7-47.37-102.38-104.9-133.8-172.68-3.64-7.85-6.83-15.9-10.22-23.87-.31-.74-.79-1.46-.34-2.37,2.01-.78,3.89.33,5.81.59,5.62.77,11.25,1.31,16.91,1.26,2.88-.03,4.44.88,5.63,3.67,11.48,27.07,25.75,52.62,42.28,76.92,27.11,39.85,59.78,74.5,97.73,104.14,51.1,39.9,108.16,67.69,170.99,83.53,22.93,5.78,46.21,9.6,69.78,11.77,21.1,1.95,42.24,2.47,63.36,1.49,46.49-2.16,91.73-10.96,135.53-26.91,67.16-24.45,125.64-62.4,175.13-113.91,59.04-61.44,98.09-133.91,117.39-216.96,1.26-5.42,3.04-10.41,5.74-15.27,8.66-15.6,13.25-32.62,16.58-50.02,2.88-15.06,4.3-30.31,6.09-45.52,1.3-11.07,2.72-22.13,4.09-33.19.54-.31,1.07-.62,1.61-.93Z"/><path class="cls-2" d="M1113.65,543.81c3.52-3.23,6.97-6.54,10.56-9.68,4.89-4.27,9.76-8.58,14.88-12.56,6.11-4.75,11.04-3.23,14.2,3.93,2.66,6.01.65,13.36-3.93,17.19-13.43,11.21-25.78,23.62-38.36,35.77-1.89,1.82-2.88,3.74-3.17,6.44-2.16,19.69-4.49,39.37-6.8,59.05-2.09,17.87-4.57,35.67-9.97,52.91-3.8,12.13-8.66,23.74-16.85,33.73-10.01,12.2-23.26,18.46-38.38,21.48-8.01,1.6-15.89,1.39-23.58-1.55-10.83-4.15-17.98-11.8-21.16-22.94-4.04-14.16-2.34-28.09,2.64-41.66,5.56-15.13,14.14-28.62,23.5-41.62,10.83-15.03,22.98-28.94,36.03-42.08,8.57-8.62,16.94-17.44,25.48-26.1,1.71-1.73,2.82-3.55,3.1-6.02,2.38-21.01,4.83-42.02,7.23-63.03.13-1.14.02-2.31.02-3.85-1.82,1.45-2.09,3.47-2.81,5.16-7.29,17.08-16.01,33.32-28.02,47.6-9.67,11.5-20.79,21.12-35.34,25.98-5.38,1.8-10.92,2.93-16.63,2.94-13.56.04-22.68-6.33-27.39-19.1-2.39-6.48-3.22-13.24-3.54-20.07-.61-13.23,1.73-26.23,3.27-39.28,2.08-17.69,4.37-35.36,6.55-53.03,1.41-11.4,2.76-22.81,4.2-34.2.23-1.81.69-3.6,1.19-5.36.87-3.06,2.78-5.29,5.73-6.52,5-2.09,10.25-2.91,15.63-2.49,3.87.3,5.92,2.51,6.22,6.49.13,1.82.11,3.68-.11,5.49-2.08,16.68-4.21,33.36-6.33,50.04-2.18,17.18-4.35,34.35-6.52,51.53-.54,4.29-1.06,8.59-1.56,12.89-.57,4.99-.58,9.99.55,14.91,1.6,7.02,5.69,10.1,12.92,9.75,5.28-.26,10.03-2.16,14.5-4.89,9.33-5.69,15.9-14.08,22.07-22.82,9.76-13.82,16.96-29.01,23.31-44.61,10.71-26.29,18.28-53.51,23.66-81.36.6-3.1.85-6.26,1.44-9.36.9-4.67,3.69-7.68,8.3-9.02,4.18-1.22,8.4-2.12,12.78-1.8,4.45.33,6.66,2.53,6.92,6.93.11,1.82.07,3.68-.14,5.49-2.13,18.36-4.33,36.7-6.48,55.06-1.78,15.21-3.52,30.43-5.3,45.64-1.58,13.56-3.19,27.11-4.76,40.67-.29,2.47-.43,4.96-.65,7.44.29.16.57.33.86.49ZM1076.96,613.64c-.94-.21-1.43.24-1.91.71-11.47,11.35-23.28,22.37-32.67,35.66-7.89,11.16-15.78,22.31-20.62,35.22-3.42,9.12-5.69,18.46-3.63,28.32,2.14,10.28,9.46,14.56,19.67,11.78,7.49-2.04,12.85-6.77,17.21-12.87,7.13-9.95,10.44-21.45,13.14-33.17,3.15-13.65,4.25-27.61,5.97-41.47,1-8.06,1.9-16.13,2.85-24.17Z"/><path class="cls-2" d="M870.89,555.16c-5.9,12.55-12.03,23.97-19.41,34.7-7.6,11.06-16.12,21.24-27.35,28.81-6.55,4.41-13.59,7.61-21.55,8.69-10.6,1.43-19.71-1.51-27.56-8.64-8.33-7.56-12.85-17.28-15.51-27.96-4.09-16.4-4.21-33.02-1.84-49.63,2.98-20.83,9.59-40.49,20.84-58.35,12.87-20.44,29.69-36.21,53.26-43.73,16.46-5.25,33.07-5.12,49.82-1.87,4.21.82,4.14.82,4.67-3.55,2.89-23.8,5.83-47.6,8.72-71.4,2.49-20.5,4.9-41,7.4-61.5,1.55-12.72,3.27-25.43,4.76-38.16.7-5.94,3.89-9.36,9.6-10.58,2.92-.63,5.85-1.3,8.82-1.65,6.98-.82,10.52,2.41,9.94,9.44-.66,7.96-1.71,15.89-2.66,23.83-2.16,18.02-4.37,36.03-6.56,54.04-2.2,18.01-4.41,36.02-6.6,54.04-2.14,17.69-4.25,35.38-6.39,53.06-2.18,18.02-4.4,36.03-6.58,54.04-2.14,17.69-4.27,35.37-6.4,53.06-.52,4.3-1.05,8.59-1.6,12.89-.47,3.65-.8,7.33-.13,10.95.78,4.16,3.29,5.51,7.32,4.23,1.62-.51,3.06-1.39,4.17-2.65,1.54-1.74,3.13-3.49,4.38-5.43,2.53-3.91,5.26-7.77,7.16-11.99,4.54-10.08,11.07-8.06,18.8-1.95,2.26,1.78,2.82,4.64,1.83,7.33-5.01,13.63-11.55,26.29-23.99,34.75-8.22,5.59-17.32,8.45-27.36,7.35-7.41-.81-12.57-4.91-15.71-11.58-2.74-5.82-3.8-12.06-3.99-18.42-.15-5.32.1-10.66.13-15.99,0-1.77.53-3.57-.42-6.17ZM864.42,461.06c-4.64-.52-9.74.51-14.85,1.12-10.73,1.28-20.7,4.54-29.42,11.28-11.55,8.93-19.22,20.61-24.68,33.91-5.22,12.72-8.04,25.99-9.32,39.68-1.02,10.9-.47,21.62,2.2,32.2,1.4,5.53,3.63,10.72,7.64,14.95,4.15,4.37,8.99,5.88,14.93,4.13,7.31-2.16,12.88-6.82,18.06-12.06,8.5-8.61,14.84-18.77,20.64-29.3,11.85-21.53,20.31-44.45,27.68-67.81,2.36-7.47,4.46-14.98,4.85-22.86.18-3.53.21-3.62-3.25-4.15-4.61-.71-9.23-1.31-14.47-1.09Z"/><path class="cls-2" d="M511.12,793.56c0-21.67.14-43.33-.1-65-.06-5.89,2.28-9.81,6.98-12.83,7.3-4.69,15.5-6.97,23.85-8.42,21.71-3.78,43.4-3.66,64.9,1.69,5.68,1.41,11.13,3.44,16.13,6.51,4.86,2.98,7.41,7.02,7.39,13.13-.17,43.17-.09,86.33-.09,129.5,0,1.33-.05,2.67,0,4,.08,1.87-.67,2.81-2.62,2.68-.99-.07-2,0-3,0-35.97,0-71.94.01-107.91-.01-5.62,0-5.55,1.05-5.55-5.72,0-21.83,0-43.67,0-65.5ZM570.35,820.95c7.7-.12,18.17,1.58,28.45,4.5,7.52,2.13,14.78,4.96,21.8,8.41.97.48,2.34,2.06,3.25-.11.72-1.73-.96-1.85-1.89-2.27-3.78-1.72-7.55-3.48-11.42-4.98-31.2-12.04-62.01-11.09-92.33,3.07-1.41.66-4.98.54-3.66,3.31.91,1.92,3.17-.24,4.61-.9,15.31-6.98,31.27-11.02,51.18-11.04ZM569.38,797.97c4.34-.15,10.6.59,16.84,1.63,12.21,2.04,23.76,6.08,34.85,11.52,1,.49,2.14,1.41,2.8-.4.51-1.39-.64-1.64-1.51-2.06-5.54-2.65-11.19-5.04-17.02-7.03-29.74-10.15-58.81-8.26-87.18,4.97-1.38.64-5.02.46-3.6,3.32.92,1.86,3.19-.29,4.64-.95,15.32-6.97,31.27-11.03,50.17-11.01ZM566.16,756.81c-11.97-.24-25.36,2.79-38.42,7.5-3.89,1.41-7.63,3.26-11.41,4.98-.83.38-2.08.8-1.29,2.14.67,1.14,1.67.76,2.6.28.74-.38,1.47-.77,2.22-1.12,15.73-7.34,32.27-11.34,49.64-11.13,17.52.21,34.16,4.5,49.95,12.1,1.05.5,2.11.98,3.19,1.4.62.24,1.33.36,1.75-.34.55-.9.13-1.56-.68-2.03-.57-.33-1.16-.64-1.76-.92-17.02-8.1-34.8-12.97-55.8-12.86ZM569.39,716.21c-17.07,0-34.19,4.28-50.53,11.91-.75.35-1.54.68-2.2,1.16-.51.37-.98.95-.46,1.68.39.56.85,1.04,1.64.68,1.51-.69,3.02-1.37,4.54-2.06,14.42-6.49,29.47-10.23,45.34-10.52,16.22-.3,31.68,3.15,46.63,9.22,3.23,1.31,6.39,2.81,9.57,4.23.66.29,1.23.39,1.7-.31.62-.92.15-1.6-.59-2.05-1-.59-2.07-1.06-3.12-1.56-16.3-7.68-33.4-12.07-52.5-12.4ZM563.94,777.78c-12.93.03-29.25,3.74-45.72,11.54-1.21.58-4.12.63-2.96,2.92,1.08,2.14,2.96.08,4.27-.53,27.91-13.01,56.43-14.96,85.68-4.99,5.82,1.99,11.46,4.37,17.02,6.98.73.34,1.6.8,2.19-.13.81-1.27-.3-1.75-1.13-2.24-.86-.5-1.76-.92-2.66-1.35-16.61-7.75-33.96-12.35-56.69-12.2ZM566.31,836.66c-10.36-.21-21.78,1.83-32.98,5.3-6.2,1.92-12.15,4.49-18.01,7.24-.72.34-1.46.87-1,1.92.43.99,1.22,1.01,2.05.64,1.06-.47,2.08-1.04,3.14-1.52,23.27-10.59,47.36-13.89,72.48-8.18,10.1,2.3,19.7,5.96,29.07,10.29.86.4,1.84,1.24,2.57,0,.72-1.21-.36-1.75-1.22-2.24-.72-.41-1.47-.77-2.23-1.12-16.64-7.73-33.98-12.49-53.87-12.33ZM568.88,737.72c-17.13-.21-33.74,4.01-49.57,11.49-1.35.64-4.45.74-3.22,3.15,1.01,1.98,2.92-.23,4.25-.84,26.08-11.94,52.87-14.64,80.57-6.5,7.51,2.21,14.72,5.14,21.77,8.51.94.45,1.99.94,2.63-.16.7-1.2-.45-1.73-1.29-2.23-.42-.26-.89-.44-1.34-.65-16.89-7.95-34.49-12.96-53.79-12.78Z"/><path class="cls-2" d="M769.33,793.53c0,21.81,0,43.63,0,65.44,0,1.33,0,2.66-.03,4-.03,1.21-.72,1.79-1.9,1.81-1.16.02-2.33.02-3.49.02-36.11,0-72.21,0-108.32,0-.67,0-1.34-.06-2,0-2.28.25-3.51-.52-3.23-3.03.11-.99.01-2,.01-3,0-43.46.13-86.93-.13-130.39-.04-7.26,3.11-11.48,8.97-14.66,9.08-4.92,18.97-7.17,29.05-8.39,19.11-2.32,38.17-2.01,56.98,2.66,5.51,1.37,10.82,3.25,15.78,6.04,5.46,3.07,8.51,7.22,8.41,14.03-.3,21.81-.11,43.63-.11,65.44ZM710.86,753.37c-14.78-.32-29.14,2.02-42.98,7.26-4.19,1.59-8.25,3.52-12.37,5.28-.97.42-1.88.89-1.23,2.16.67,1.31,1.58.66,2.5.24,2.87-1.31,5.73-2.66,8.66-3.82,17.14-6.77,34.8-9.77,53.25-7.8,14.38,1.54,27.92,5.78,40.99,11.82,1.15.53,2.85,2.45,3.83.62,1.27-2.36-1.61-2.45-2.78-3.02-15.76-7.57-32.28-12.24-49.86-12.75ZM705.64,774.2c-9.43.17-21.05,1.83-32.37,5.51-6.01,1.95-11.86,4.28-17.56,6.98-.92.44-1.92.84-1.4,2.15.56,1.41,1.53.83,2.45.42,3.03-1.35,6.03-2.8,9.11-4.01,19.77-7.81,40.11-10.3,61.13-6.45,11.85,2.17,23.1,6.06,33.92,11.29.97.47,2.13,1.49,2.82-.33.52-1.37-.65-1.63-1.52-2.06-17.08-8.39-35.03-13.3-56.59-13.51ZM707.92,833.07c-12.3.04-23.76,1.87-34.94,5.33-5.71,1.77-11.3,3.94-16.66,6.6-1.15.57-3.59.55-2.74,2.68.92,2.3,2.51.31,3.67-.13,2.48-.94,4.84-2.2,7.31-3.18,18.11-7.23,36.79-10.04,56.22-7.51,13.16,1.71,25.58,5.77,37.6,11.24.91.41,1.82.82,2.69,1.3.95.53,1.56.18,1.99-.66.37-.73.01-1.26-.62-1.62-.43-.25-.91-.4-1.36-.62-16.92-8.45-34.79-13.05-53.15-13.41ZM763.2,806.63c.05-.61-.78-1-1.47-1.31-3.62-1.64-7.24-3.32-10.93-4.79-30.9-12.28-61.55-11.58-91.94,1.82-1.52.67-2.96,1.5-4.44,2.25-.84.43-1.34,1.1-.87,1.98.51.96,1.42.59,2.17.27,1.68-.71,3.33-1.5,5-2.23,11.48-5.01,23.38-8.45,35.89-9.58,21.73-1.96,42.26,2.41,61.82,11.81,1.04.5,2.11,1.03,3.22,1.3.6.15,1.25-.34,1.56-1.54ZM706.69,817.57c12.54.06,24.76,2.08,36.65,6.15,5.82,1.99,11.5,4.3,17.01,7.03.93.46,1.97.82,2.59-.34.71-1.32-.52-1.78-1.34-2.16-3.15-1.47-6.32-2.93-9.54-4.24-31.85-12.92-63.42-12.33-94.65,2.1-1.46.68-4.62,1.11-3.78,3,1.22,2.77,3.46,0,4.89-.63,15.34-6.87,31.28-10.96,48.17-10.91ZM705.99,712.89c-8.46-.08-19.4,1.76-30.13,5.01-6.53,1.97-12.87,4.46-18.99,7.46-.86.42-2.01.94-1.37,2.21.63,1.22,1.73.61,2.6.24,3.21-1.36,6.35-2.88,9.59-4.17,18.48-7.35,37.55-9.62,57.25-6.73,12.28,1.8,23.9,5.63,35.12,10.82,1.2.56,2.41,1.12,3.67,1.52.29.09.96-.39,1.15-.76.18-.35.13-1.08-.12-1.33-.45-.45-1.12-.69-1.72-.98-17.13-8.33-35.09-13.28-57.05-13.28ZM708.72,736.99c10-.11,20.47,1.56,30.77,4.46,7.7,2.17,15.06,5.21,22.3,8.58.77.36,1.8,1.38,2.55.06.88-1.56-.47-1.98-1.52-2.46-3.32-1.51-6.59-3.15-9.97-4.5-31.96-12.7-63.55-11.96-94.66,2.88-1.17.56-4.19.43-2.99,2.83,1.07,2.13,2.84,0,4.15-.59,15.47-7.02,31.57-11.28,49.39-11.26Z"/><path class="cls-1" d="M329.26,294.95c-.58.1-1.02-.15-1.41-.55-.34-1.05-1.17-1.37-2.16-1.43,0,0,.09.06.09.06,0-.74-.49-.96-1.12-1.04,0,0,.1.08.1.08-1.46-1.99-3.72-2.69-5.85-3.58-3.37-2.5-7.47-3.57-11.76-6.02,38.37-35.88,81.09-64.58,128.49-86.11,94.57-42.96,193.13-54.23,295.02-34.95,66.56,12.59,127.59,38.76,183.89,77.9-9.19,2.78-15.99,7.09-18.61,15.88-1.98.57-2.95-.88-4.1-1.64-34.74-23.06-71.93-41.04-111.57-53.96-27.59-9-55.8-15.12-84.58-18.87-25-3.25-50.09-4.26-75.23-3.42-28.65.96-57,4.73-84.98,11.1-69.16,15.76-131.27,46.12-186.66,90.37-5.85,4.68-11.42,9.71-17.12,14.57-.75.64-1.38,1.47-2.45,1.62Z"/><path class="cls-2" d="M663.74,594.01c-4.93,10.93-10.07,21.75-16.64,31.81-8.44,12.93-18.22,24.65-31.13,33.39-9.99,6.76-20.87,10.99-33.14,10.85-12.74-.14-21.85-6.54-26.19-18.57-3.39-9.39-4.05-19.17-3.62-29.05.54-12.5,2.55-24.84,3.99-37.24,2.08-17.86,4.37-35.69,6.55-53.54,1.09-8.92,2.12-17.85,3.23-26.77.21-1.65.63-3.27,1.05-4.88,1.05-3.99,3.44-6.77,7.43-8.05,4.14-1.33,8.34-2.28,12.73-2.08,5.51.26,7.87,2.6,7.69,8.2-.14,4.15-.72,8.29-1.23,12.42-2.83,22.63-5.8,45.24-8.51,67.88-1.62,13.55-3.68,27.05-4.83,40.67-.33,3.87-.07,7.67.5,11.45,1.12,7.46,5.51,10.96,13.12,10.61,7.66-.36,14.06-3.79,19.76-8.62,6.77-5.74,12.44-12.49,17.39-19.86,12.9-19.23,21.99-40.27,29.54-62.04,7.7-22.2,13.72-44.85,17.38-68.1.13-.82.39-1.63.48-2.45.66-6.25,4.04-9.93,10.18-11.33,3.09-.7,6.18-1.38,9.34-1.51,6.24-.26,9.07,2.4,8.83,8.59-.18,4.65-.79,9.29-1.34,13.92-3.84,31.9-7.71,63.79-11.56,95.69-1.02,8.43-2.04,16.86-2.96,25.3-.25,2.31-.34,4.67-.14,6.98.33,3.92,2.37,5.25,6.15,4.23,2.15-.58,3.89-1.86,5.41-3.44,2.21-2.29,4.04-4.87,5.57-7.65,1.92-3.5,3.77-7.04,5.74-10.52,2.87-5.08,6.04-6.44,11.65-5.02,2.77.7,5.29,2,7.46,3.89,2.21,1.92,3.15,4.21,1.94,7.12-5.33,12.88-11.69,25.08-22.82,34.06-9.18,7.41-19.76,10.23-31.31,8.63-6.75-.93-11.34-5.36-14-11.57-2.86-6.68-3.66-13.8-3.8-21-.15-7.51.88-14.94,1.52-22.4.39-.97.5-1.94-.13-3.62-.56,1.63-.9,2.62-1.24,3.62Z"/><path class="cls-2" d="M474.9,516.97c12.71-2.55,24.76-4.96,36.8-7.37.81-.16,1.62-.4,2.43-.54,6.4-1.07,9.12,1.01,9.44,7.41.12,2.32.09,4.7-.28,6.98-1.27,7.7-4.58,12.56-13.21,13.88-11.49,1.75-22.84,4.48-34.25,6.8-4.01.81-4.13.81-4.66,4.99-1.88,14.87-3.68,29.74-5.49,44.62-2.18,17.85-4.31,35.7-6.53,53.55-.54,4.32-.85,8.65-.33,12.96.8,6.68,4.65,9.25,11.18,7.68,2.8-.67,5.21-2.15,7.52-3.82,7.75-5.57,13.21-13.07,17.78-21.29.65-1.16,1.17-2.39,1.81-3.56,1.71-3.11,3.5-6.32,7.61-6.38,4.8-.07,9.3,1.17,12.61,4.9,2.37,2.67,1.99,5.88.77,8.97-4.81,12.26-11.89,22.98-21.32,32.23-8.22,8.06-17.87,13.17-29.08,15.49-4.95,1.03-9.97,1.23-14.9.39-8.94-1.53-14.91-6.95-18.25-15.29-3.29-8.2-4.31-16.81-3.4-25.51,2.24-21.36,4.8-42.68,7.23-64.02,1.37-12.07,2.74-24.15,4.09-36.22.09-.8.33-1.65-.58-2.8-5.75,1.13-11.72,2.29-17.69,3.47-1.96.39-3.89.89-5.86,1.21-3.41.56-5.69-.49-6.67-3.7-2.26-7.44-1.2-14.49,3.46-20.83,1.45-1.97,3.62-2.82,5.99-3.29,7.02-1.38,14.03-2.79,21.03-4.24,4.15-.86,4.17-.89,4.65-4.87,2.65-22.15,5.34-44.3,7.89-66.47.71-6.17,3.6-10.2,9.77-11.69,3.57-.86,7.13-1.66,10.83-1.59,5.63.1,8.34,2.69,8.15,8.34-.13,3.81-.79,7.61-1.26,11.41-2.38,19.14-4.78,38.27-7.28,58.21Z"/><path class="cls-7" d="M790.5,809.51c0,23.33,0,46.66,0,70,0,1.17-.05,2.34,0,3.5.09,1.88-.7,2.79-2.63,2.7-1.33-.06-2.66,0-4,0-33.81,0-67.61.03-101.42-.05-3.67,0-6.36.77-9.14,3.66-10.54,10.94-23.4,16.74-38.91,15.79-12.22-.75-22.54-5.84-30.98-14.36-3.72-3.76-7.38-5.19-12.6-5.15-33.14.22-66.28.11-99.42.11-1.17,0-2.34-.1-3.5.02-2.72.28-3.46-1.04-3.33-3.54.15-3.16.04-6.33.04-9.5,0-44.33,0-88.66,0-132.99,0-1.33.06-2.67,0-4-.09-1.91.79-2.52,2.66-2.68,9.38-.77,9.37-.82,9.37,8.47,0,42.33,0,84.66,0,126.99,0,1,0,2,0,3,.04,4.8.04,4.83,4.99,4.84,32.14.01,64.28.07,96.42-.07,3.95-.02,6.57.88,9.22,4.16,6.49,8.02,15.44,11.91,25.66,12.71,8.42.66,16.61-.22,24.26-4.24,4.34-2.28,8.42-5.04,11.08-9.11,1.99-3.05,4.36-3.48,7.53-3.47,31.47.07,62.95.05,94.42.03,7.34,0,6.57.7,6.58-6.81.02-43.5,0-87,0-130.5,0-6.8-.29-5.92,5.86-5.95,7.83-.04,7.83-.02,7.83,7.96v68.5Z"/><path class="cls-1" d="M947.77,264.78c6.36,4.79,11.6,9.63,16.85,14.44,47.83,43.82,85.59,95.07,113.14,153.84,1.27,2.71,1.57,5.15.67,8.11-2.79,9.24-5.75,18.41-9.08,27.47-.39,1.06-.53,2.28-1.83,2.89-3.07-7.19-6.03-14.41-9.23-21.53-26.02-58.05-62.55-108.53-109.27-151.65-.98-.9-1.9-1.88-2.94-2.71-1.44-1.16-2.04-2.56-1.68-4.38.06-.33.08-.66.12-.99,1.04-8.22,2.08-16.43,3.23-25.49Z"/><path class="cls-2" d="M447.27,990.07c-6.32-.09-11.79-1.46-16.98-3.81-10.4-4.69-19.98-10.57-27.43-19.45-7.12-8.49-7.74-17.69-3.01-27.45,1.59-3.29,1.68-3.33,4.71-1.69,5.71,3.08,11.35,6.28,17.06,9.36,1.66.89,2.69,1.79,1.78,3.87-2.13,4.88.09,8.27,3.92,11.12,3.24,2.42,6.75,4.21,10.68,5.2,2.29.58,4.3.38,5.66-1.84,1.27-2.06.41-3.87-.82-5.51-2.01-2.67-4.57-4.82-7.02-7.07-4.17-3.83-8.33-7.66-12.44-11.54-1.2-1.14-2.31-2.4-3.32-3.72-8.96-11.7-7.86-23.07,1.94-33.79,5.23-5.71,12.23-7.35,19.65-6.43,14.73,1.82,27.18,8.39,37.48,19.03,2.56,2.64,4.6,5.7,6.11,9.07,2.9,6.49,2.6,12.9-.49,19.26-.85,1.75-1.58,2.65-3.71,1.42-5.89-3.42-11.89-6.68-17.89-9.91-1.57-.84-2.05-1.74-1.6-3.56,1.11-4.5-.91-7.69-4.66-10.05-2.42-1.52-4.96-2.73-7.77-3.26-2.06-.39-4.09-.14-5.37,1.73-1.32,1.93-.59,3.83.61,5.56,1.73,2.48,4.02,4.43,6.23,6.44,4.43,4.03,8.88,8.04,13.3,12.08.74.67,1.42,1.4,2.08,2.15,6.68,7.64,10.31,16.04,5.61,26.05-4.92,10.48-12.77,16.84-24.32,16.74Z"/><path class="cls-2" d="M677.5,1030.07c.8,7.53,1.59,14.95,2.39,22.37.14,1.32.32,2.64.48,3.96.2,1.69-.61,2.37-2.24,2.53-6.28.63-12.56,1.41-18.84,2-3.45.32-3.5.21-3.88-3.32-2.68-24.47-5.35-48.94-8.03-73.41-.07-.66-.14-1.32-.21-1.99-.35-3.26-2.2-7.23-.18-9.6,1.77-2.07,5.88-1.4,8.99-1.68,2.15-.2,4.28-.56,6.43-.77,3.77-.36,3.77-.34,5.19,3.5.4,1.09.83,2.17,1.24,3.25,1.61.36,1.91-1.08,2.58-1.9,12-14.68,35.66-12.2,43.77,4.9,5.2,10.95,6.59,22.7,3.85,34.57-3.69,16-22.14,24.42-37.19,17.32-1.31-.62-2.43-1.76-4.36-1.73ZM695.43,1003.71c-.31-2.65-.66-5.95-1.09-9.23-.11-.81-.42-1.6-.69-2.38-1.71-4.95-4.83-7.21-9.6-6.96-5.23.27-8.56,2.75-9.62,7.75-1.27,5.99-.51,11.9,1.87,17.51,1.45,3.41,4.03,5.56,7.98,5.79,7.37.42,11.39-3.78,11.15-12.47Z"/><path class="cls-2" d="M746.77,963.05c6.13-11.72,15.99-17.45,27.83-16.45,7.07.6,12.81,3.75,16.95,9.35,7.98,10.8,11.88,22.97,10.85,36.47-.46,6.07-3.08,11.36-7.87,15.08-7.83,6.08-16.57,9.08-26.57,6-.74-.23-1.46-.82-2.73.03.76,2.5,1.54,5.15,2.37,7.78,1.66,5.23,3.38,10.44,5.02,15.67,1.1,3.51,1.08,3.6-2.07,4.63-5.84,1.92-11.76,3.62-17.56,5.65-2.29.8-3.18.36-3.91-1.97-3.55-11.43-7.26-22.81-10.92-34.21-4.72-14.72-9.46-29.44-14.17-44.17-1.35-4.23-1.32-4.27,2.69-5.59,3.63-1.19,7.28-2.32,10.93-3.46q4.37-1.37,6.66,2.31c.6.95.89,2.17,2.48,2.88ZM754.51,979.43c1.16,5,2.01,11.33,6.66,16.13,3.02,3.11,7.15,3.6,11.45,1.61,4.02-1.86,6.06-5.17,5.43-9.62-.69-4.94-2.22-9.71-4.42-14.18-2.51-5.09-6.23-6.69-11.45-5.33-5.05,1.31-7.67,4.79-7.68,11.39Z"/><path class="cls-2" d="M632.77,256.05c1.64.15,2.56-1.26,3.79-1.97,7.11-4.1,14.65-5.25,22.6-3.36,9.21,2.19,14.72,9.17,15.32,19.64.29,4.98.11,9.98.09,14.98-.03,9.32-.07,18.64-.16,27.97-.04,3.52-.11,3.59-3.62,3.6-5.99.03-11.98-.14-17.96-.01-2.63.06-3.44-.88-3.4-3.46.15-10.82.15-21.64.2-32.46,0-1.17.03-2.33,0-3.5-.12-5.27-2.16-8.12-6.27-8.81-4.84-.81-9.09,1.55-10.85,5.99-.76,1.91-.75,3.89-.76,5.89-.05,10.65-.1,21.31-.19,31.96-.03,4.11-.08,4.16-4.12,4.13-5.82-.04-11.64-.28-17.46-.22-2.55.02-3.5-.74-3.42-3.43.21-6.99.09-13.98.16-20.97.19-20.31.41-40.62.63-60.92.04-4.12.07-4.15,4-4.16,5.49-.01,10.98.01,16.47.06,4.46.04,4.49.06,4.46,4.78-.04,7.16-.13,14.32-.16,21.47,0,.93-.32,1.99.67,2.81Z"/><path class="cls-2" d="M517.32,957.31c7.46-2.82,14.28-3.32,21.19-1.23,13.16,3.97,18.81,13.48,15.3,26.9-2.89,11.09-6.49,21.99-9.77,32.98-.81,2.71-1.73,5.39-2.42,8.12-.48,1.92-1.5,2.39-3.27,1.84-6.35-1.96-12.69-3.96-19.07-5.79-2.11-.61-2.03-1.86-1.56-3.42,1.44-4.78,2.9-9.54,4.35-14.31,1.79-5.88,3.58-11.77,5.37-17.65.29-.95.62-1.9.86-2.86,1.38-5.44-.19-9.18-4.48-10.72-4.95-1.78-9.94.13-12.24,4.78-.51,1.03-.79,2.18-1.13,3.29-3.21,10.49-6.39,20.99-9.62,31.47-1.04,3.37-1.12,3.41-4.33,2.46-5.58-1.64-11.14-3.33-16.69-5.05-3.79-1.17-3.82-1.23-2.62-5.18,5.61-18.62,11.24-37.23,16.86-55.85,2.21-7.32,4.39-14.65,6.64-21.96,1.18-3.86,1.24-3.88,5.19-2.7,5.57,1.66,11.1,3.47,16.7,5.03,2.43.67,3.17,1.5,2.28,4.16-2.48,7.41-4.59,14.93-6.83,22.42-.23.77-.35,1.58-.71,3.26Z"/><path class="cls-2" d="M708.81,293.97c-1.14,4.91-1.14,9.4,2.8,12.65,4.24,3.49,9.32,4.26,14.6,2.81,2.36-.65,4.03-2.4,4.83-4.72.56-1.63,1.56-1.98,3.05-1.7,6.37,1.21,12.74,2.45,19.11,3.61,2.03.37,2.3,1.4,1.74,3.19-2.39,7.74-7.37,12.9-15.06,15.39-1.42.46-2.88.87-4.35,1.06-13.84,1.8-26.89-.62-38.77-7.99-8.74-5.43-12.87-13.77-12.93-23.97-.04-6.71,1.18-13.29,3.91-19.45,5.04-11.36,14.24-16.86,26.3-17.65,9.81-.65,19.23,1.39,28.01,5.82,11.42,5.75,17.01,15.92,15.91,28.63-.24,2.81-.81,5.6-1.16,8.4-.26,2.04-1.04,2.71-3.29,2.26-10.27-2.05-20.59-3.9-30.89-5.81-4.55-.84-9.11-1.67-13.82-2.53ZM711.62,282.17c6.63,1.27,12.97,2.55,19.34,3.68,2.61.46,3.12-.21,2.83-3.06-.43-4.21-2.94-7.09-7.48-8.25-4.92-1.26-9.62-1.19-13.16,3.23-.9,1.12-1.97,2.26-1.53,4.39Z"/><path class="cls-2" d="M875.17,936.01c-13.83,7.8-27.7,15.63-41.76,23.57,2.25,4.79,5.46,8.12,10.68,7.87,5.59-.27,10.23-2.92,13.01-8.01.97-1.77,1-3.88.27-5.85-.66-1.79.15-2.76,1.66-3.58,5.54-3.05,11.08-6.1,16.54-9.29,1.94-1.14,2.74-.21,3.39,1.34,2.17,5.23,2.9,10.56.95,16.05-.78,2.21-1.62,4.42-3.08,6.25-9.9,12.4-22.66,19.94-38.47,21.68-9.85,1.09-17.88-2.94-24.11-10.52-4.26-5.19-7.45-11.01-9.32-17.5-2.29-7.96-1.67-15.77,3.04-22.53,9.62-13.82,22.98-21.34,40-21.72,6.1-.14,11.33,2.32,15.92,6.22,4.6,3.91,8.44,9.33,11.29,16.02ZM827.75,948.92c6.78-3.81,13.21-7.43,19.68-11.07-4.06-5.98-8.06-7.04-13.8-4.02-6.65,3.49-8.63,8.2-5.87,15.08Z"/><path class="cls-2" d="M550.94,325.45c-2.21.78-2.19-1.1-2.49-2.8-2.94-16.38-5.91-32.76-8.87-49.14-.36-1.97-.69-3.94-1.04-5.9q-.7-3.84-4.43-3.17c-6.55,1.18-13.08,2.43-19.64,3.53-4.03.68-4.07.58-4.8-3.45-.83-4.59-1.62-9.18-2.41-13.77-.66-3.78-.66-3.85,3.05-4.53,8.83-1.61,17.68-3.15,26.52-4.73,15.88-2.84,31.75-5.73,47.63-8.53,3.9-.69,3.97-.6,4.71,3.34.86,4.58,1.66,9.18,2.41,13.78.64,3.91.6,3.96-3.39,4.7-6.05,1.11-12.12,2.15-18.18,3.22-.49.09-1,.11-1.48.21-3.17.67-3.34.82-2.79,3.94,1.42,8.03,2.93,16.05,4.37,24.07,1.86,10.32,3.72,20.64,5.51,30.97.61,3.53.54,3.66-2.66,4.27-7.19,1.37-14.4,2.62-22.01,3.99Z"/><path class="cls-2" d="M636.58,1001.02c-.12,2.59-.21,5.57-.82,8.53-3.27,15.81-12.93,24.67-29.03,26.18-7.86.73-15.64-.18-23.1-2.82-13.55-4.79-20.93-15.23-20.88-29.61.02-4.65.55-9.3,1.85-13.81,3.48-12.09,11.64-19.03,23.81-21.46,8.5-1.7,16.91-.89,25.14,1.54,15.15,4.47,22.98,15.14,23.04,31.45ZM611.78,1000.77c0-1.83.12-3.66-.02-5.48-.5-6.67-3.73-9.93-10.33-10.55-6.87-.65-11.16,2.05-12.53,8.55-1.03,4.87-1.65,9.87-1.32,14.89.41,6.25,4.06,9.76,10.6,10.49,5.94.66,10.45-2.29,12.18-8.02.97-3.22,1.13-6.55,1.42-9.88Z"/><path class="cls-1" d="M218.55,446.17c-7.42-6.56-13.47-14.04-15.94-23.91.64-1.17,1.31-2.32,1.9-3.51,10.34-20.57,22.23-40.2,35.37-59.08,7.8-11.21,16.36-21.84,24.72-32.61,10.32-1.67,20.66-3.72,30.8.89.46,1.85-1.07,2.68-2.01,3.74-28.66,32.12-52.21,67.65-70.97,106.38-1.31,2.69-2.58,5.4-3.87,8.11Z"/><path class="cls-1" d="M179.94,586.96c-3.61-.44-6.88.84-10.17,2.01-5.16,1.84-10.03,4.36-15.2,6.97-.93-2.21-.01-4.1.16-5.95,2.87-31.26,9-61.89,18.04-91.94.14-.48.24-.97.39-1.45,1.4-4.46,1.36-4.4,5.57-2,4.63,2.63,9.31,5.18,14.01,7.68,3.8,2.02,3.9,1.98,2.69,6.06-3.55,11.97-6.54,24.09-9.03,36.32-2.86,14.02-5.32,28.1-6.54,42.37,0,0,.08-.07.08-.07Z"/><path class="cls-1" d="M189.69,747.48c-7.79-4.63-14.48-10.57-19.67-17.96-5.72-8.15-10.56-16.84-13.53-26.43-.43-3.67-.86-7.35-1.29-11.02-1.11-20.15,5.58-36.9,21.59-49.59.43,6.62.47,13.26.79,19.9,1.36,27.93,5.45,55.45,11.77,82.67.19.8.24,1.63.35,2.44Z"/><path class="cls-2" d="M446.2,302.98c-.04-10.92,8.27-19.18,19.23-19.15,10.65.03,18.97,8.27,19.05,18.86.09,10.86-8.29,19.45-19,19.48-10.87.02-19.25-8.31-19.28-19.18Z"/><path class="cls-2" d="M908.48,804.6c0,10.89-8.36,19.31-19.18,19.29-10.68-.02-19.18-8.65-19.14-19.42.05-10.44,8.57-19.01,19.03-19.14,10.63-.12,19.28,8.52,19.29,19.27Z"/><path class="cls-2" d="M404.93,804.79c-.06,10.9-8.44,19.17-19.36,19.09-10.67-.08-19.04-8.77-18.89-19.61.15-10.51,8.73-19.02,19.17-18.89,12.06.15,19.73,10.25,19.07,19.41Z"/><path class="cls-2" d="M827.77,283.82c10.96.07,19.2,8.45,19.04,19.35-.16,10.87-8.65,19.14-19.5,18.98-10.5-.15-18.82-8.64-18.81-19.19.02-10.91,8.38-19.22,19.27-19.15Z"/><path class="cls-7" d="M1120.92,596.04c-.54.31-1.07.62-1.61.93-.21-2.26-.04-4.46,1.61-6.63v5.69Z"/><path class="cls-6" d="M318.92,288.49c2.13.89,4.38,1.6,5.85,3.58-2.37.29-4.16-1-6-2.16.05-.47.1-.95.15-1.42Z"/><path class="cls-6" d="M663.74,594.01c.34-1,.68-1.99,1.24-3.62.63,1.68.52,2.65.13,3.62-.46,0-.91,0-1.37,0Z"/><path class="cls-6" d="M264.61,327.05c-8.37,10.78-16.93,21.4-24.72,32.61-13.14,18.89-25.03,38.52-35.37,59.08-.6,1.19-1.27,2.34-1.9,3.51-1.89-3.77-2.32-7.9-2.95-11.99-1.14-7.43-1.09-14.91-.96-22.39.11-6,2.67-11.29,5.3-16.47,10-19.7,25.55-33.29,46.07-41.22,4.65-1.8,9.47-3.07,14.52-3.13Z"/><path class="cls-6" d="M155.19,692.06c.43,3.68.86,7.35,1.29,11.02-1.44-3.56-1.65-7.26-1.29-11.02Z"/><path class="cls-6" d="M325.69,292.97c.99.06,1.82.37,2.16,1.43-.72-.47-1.44-.95-2.16-1.43Z"/><path class="cls-6" d="M324.67,291.99c.62.08,1.11.3,1.12,1.04-.58-.13-1.24-.16-1.12-1.04Z"/><path class="cls-6" d="M1076.96,613.64c-.94,8.04-1.85,16.11-2.85,24.17-1.72,13.86-2.82,27.82-5.97,41.47-2.7,11.72-6.01,23.21-13.14,33.17-4.37,6.1-9.73,10.83-17.21,12.87-10.21,2.78-17.53-1.5-19.67-11.78-2.05-9.86.21-19.2,3.63-28.32,4.84-12.91,12.73-24.05,20.62-35.22,9.39-13.29,21.2-24.3,32.67-35.66.47-.47.97-.92,1.91-.71Z"/><path class="cls-8" d="M864.42,461.06c5.24-.23,9.86.38,14.47,1.09,3.46.53,3.43.63,3.25,4.15-.4,7.88-2.5,15.39-4.85,22.86-7.38,23.36-15.83,46.28-27.68,67.81-5.8,10.53-12.14,20.7-20.64,29.3-5.17,5.23-10.75,9.9-18.06,12.06-5.94,1.75-10.78.24-14.93-4.13-4.01-4.23-6.24-9.41-7.64-14.95-2.67-10.59-3.23-21.3-2.2-32.2,1.29-13.69,4.1-26.97,9.32-39.68,5.46-13.29,13.13-24.98,24.68-33.91,8.72-6.74,18.7-10,29.42-11.28,5.11-.61,10.21-1.64,14.85-1.12Z"/><path class="cls-3" d="M570.35,820.95c-19.91.02-35.87,4.05-51.18,11.04-1.44.66-3.7,2.82-4.61.9-1.31-2.77,2.25-2.65,3.66-3.31,30.31-14.16,61.13-15.11,92.33-3.07,3.87,1.49,7.64,3.26,11.42,4.98.92.42,2.61.54,1.89,2.27-.91,2.17-2.28.59-3.25.11-7.02-3.45-14.28-6.28-21.8-8.41-10.28-2.92-20.74-4.62-28.45-4.5Z"/><path class="cls-3" d="M569.38,797.97c-18.9-.02-34.86,4.04-50.17,11.01-1.45.66-3.71,2.81-4.64.95-1.42-2.86,2.22-2.67,3.6-3.32,28.37-13.24,57.44-15.13,87.18-4.97,5.82,1.99,11.47,4.38,17.02,7.03.87.42,2.02.67,1.51,2.06-.66,1.81-1.81.89-2.8.4-11.09-5.44-22.64-9.47-34.85-11.52-6.24-1.05-12.5-1.78-16.84-1.63Z"/><path class="cls-4" d="M566.16,756.81c20.99-.12,38.78,4.75,55.8,12.86.6.28,1.19.59,1.76.92.81.47,1.23,1.13.68,2.03-.43.7-1.14.58-1.75.34-1.08-.42-2.14-.9-3.19-1.4-15.79-7.6-32.43-11.89-49.95-12.1-17.36-.21-33.9,3.78-49.64,11.13-.75.35-1.49.74-2.22,1.12-.94.48-1.94.86-2.6-.28-.78-1.34.47-1.76,1.29-2.14,3.78-1.72,7.51-3.57,11.41-4.98,13.05-4.71,26.45-7.74,38.42-7.5Z"/><path class="cls-3" d="M569.39,716.21c19.1.33,36.2,4.72,52.5,12.4,1.05.5,2.13.96,3.12,1.56.75.45,1.21,1.13.59,2.05-.47.69-1.04.6-1.7.31-3.18-1.43-6.34-2.92-9.57-4.23-14.95-6.07-30.41-9.51-46.63-9.22-15.87.29-30.92,4.03-45.34,10.52-1.51.68-3.03,1.37-4.54,2.06-.79.36-1.24-.12-1.64-.68-.51-.73-.05-1.31.46-1.68.67-.48,1.45-.81,2.2-1.16,16.34-7.63,33.46-11.91,50.53-11.91Z"/><path class="cls-4" d="M563.94,777.78c22.74-.15,40.08,4.45,56.69,12.2.9.42,1.81.84,2.66,1.35.83.49,1.93.98,1.13,2.24-.59.93-1.46.48-2.19.13-5.56-2.61-11.2-5-17.02-6.98-29.25-9.98-57.77-8.03-85.68,4.99-1.31.61-3.19,2.67-4.27.53-1.16-2.29,1.75-2.35,2.96-2.92,16.47-7.79,32.79-11.51,45.72-11.54Z"/><path class="cls-4" d="M566.31,836.66c19.88-.15,37.23,4.6,53.87,12.33.75.35,1.51.71,2.23,1.12.86.49,1.94,1.03,1.22,2.24-.73,1.23-1.71.39-2.57,0-9.37-4.33-18.97-7.99-29.07-10.29-25.12-5.71-49.21-2.41-72.48,8.18-1.06.48-2.08,1.06-3.14,1.52-.83.37-1.61.35-2.05-.64-.46-1.05.28-1.58,1-1.92,5.87-2.75,11.81-5.32,18.01-7.24,11.19-3.46,22.61-5.51,32.98-5.3Z"/><path class="cls-4" d="M568.88,737.72c19.31-.17,36.9,4.84,53.79,12.78.45.21.92.39,1.34.65.84.51,1.99,1.03,1.29,2.23-.64,1.1-1.69.61-2.63.16-7.04-3.38-14.26-6.3-21.77-8.51-27.7-8.14-54.49-5.44-80.57,6.5-1.33.61-3.24,2.82-4.25.84-1.23-2.41,1.87-2.51,3.22-3.15,15.83-7.49,32.43-11.7,49.57-11.49Z"/><path class="cls-3" d="M710.86,753.37c17.58.51,34.11,5.18,49.86,12.75,1.17.56,4.06.66,2.78,3.02-.98,1.82-2.69-.09-3.83-.62-13.07-6.04-26.61-10.28-40.99-11.82-18.45-1.97-36.12,1.03-53.25,7.8-2.93,1.16-5.79,2.51-8.66,3.82-.92.42-1.83,1.07-2.5-.24-.65-1.27.26-1.74,1.23-2.16,4.12-1.76,8.18-3.69,12.37-5.28,13.84-5.24,28.2-7.58,42.98-7.26Z"/><path class="cls-3" d="M705.64,774.2c21.56.2,39.5,5.12,56.59,13.51.86.42,2.04.68,1.52,2.06-.69,1.83-1.85.8-2.82.33-10.82-5.23-22.07-9.13-33.92-11.29-21.03-3.84-41.36-1.36-61.13,6.45-3.08,1.22-6.08,2.67-9.11,4.01-.92.41-1.89.98-2.45-.42-.52-1.31.48-1.72,1.4-2.15,5.7-2.71,11.55-5.03,17.56-6.98,11.32-3.68,22.94-5.34,32.37-5.51Z"/><path class="cls-3" d="M707.92,833.07c18.36.37,36.24,4.97,53.15,13.41.45.22.93.38,1.36.62.63.36.99.9.62,1.62-.43.84-1.04,1.2-1.99.66-.87-.49-1.78-.89-2.69-1.3-12.02-5.47-24.44-9.53-37.6-11.24-19.43-2.53-38.12.28-56.22,7.51-2.47.98-4.82,2.24-7.31,3.18-1.16.44-2.75,2.43-3.67.13-.85-2.12,1.59-2.1,2.74-2.68,5.36-2.67,10.95-4.84,16.66-6.6,11.18-3.46,22.65-5.29,34.94-5.33Z"/><path class="cls-3" d="M763.2,806.63c-.31,1.2-.95,1.69-1.56,1.54-1.11-.27-2.17-.8-3.22-1.3-19.57-9.41-40.09-13.78-61.82-11.81-12.51,1.13-24.41,4.57-35.89,9.58-1.67.73-3.32,1.52-5,2.23-.75.32-1.66.68-2.17-.27-.47-.88.02-1.56.87-1.98,1.48-.75,2.92-1.58,4.44-2.25,30.39-13.4,61.05-14.1,91.94-1.82,3.69,1.47,7.31,3.14,10.93,4.79.69.31,1.53.7,1.47,1.31Z"/><path class="cls-3" d="M706.69,817.57c-16.89-.05-32.83,4.04-48.17,10.91-1.44.64-3.67,3.41-4.89.63-.83-1.89,2.32-2.33,3.78-3,31.23-14.44,62.8-15.02,94.65-2.1,3.22,1.31,6.39,2.77,9.54,4.24.82.38,2.05.84,1.34,2.16-.63,1.16-1.66.8-2.59.34-5.51-2.73-11.19-5.04-17.01-7.03-11.89-4.06-24.11-6.08-36.65-6.15Z"/><path class="cls-4" d="M705.99,712.89c21.96,0,39.91,4.95,57.05,13.28.6.29,1.27.53,1.72.98.25.25.3.98.12,1.33-.19.37-.86.85-1.15.76-1.26-.4-2.46-.97-3.67-1.52-11.22-5.18-22.85-9.01-35.12-10.82-19.7-2.89-38.77-.61-57.25,6.73-3.24,1.29-6.38,2.81-9.59,4.17-.86.37-1.97.98-2.6-.24-.65-1.26.51-1.79,1.37-2.21,6.13-3,12.46-5.49,18.99-7.46,10.73-3.24,21.68-5.09,30.13-5.01Z"/><path class="cls-3" d="M708.72,736.99c-17.82-.03-33.92,4.24-49.39,11.26-1.3.59-3.08,2.72-4.15.59-1.2-2.39,1.82-2.27,2.99-2.83,31.11-14.84,62.7-15.58,94.66-2.88,3.39,1.35,6.65,2.99,9.97,4.5,1.05.48,2.41.9,1.52,2.46-.75,1.32-1.78.3-2.55-.06-7.24-3.37-14.6-6.41-22.3-8.58-10.29-2.9-20.77-4.57-30.77-4.46Z"/><path class="cls-6" d="M695.43,1003.71c.24,8.68-3.78,12.88-11.15,12.47-3.96-.22-6.54-2.37-7.98-5.79-2.38-5.61-3.14-11.52-1.87-17.51,1.06-4.99,4.39-7.48,9.62-7.75,4.77-.24,7.89,2.01,9.6,6.96.27.78.58,1.57.69,2.38.43,3.29.78,6.59,1.09,9.23Z"/><path class="cls-6" d="M754.51,979.43c0-6.6,2.62-10.08,7.68-11.39,5.21-1.35,8.93.25,11.45,5.33,2.21,4.47,3.73,9.24,4.42,14.18.62,4.46-1.41,7.76-5.43,9.62-4.3,1.99-8.44,1.5-11.45-1.61-4.65-4.8-5.5-11.13-6.66-16.13Z"/><path class="cls-6" d="M711.62,282.17c-.45-2.12.63-3.27,1.53-4.39,3.54-4.42,8.24-4.49,13.16-3.23,4.54,1.16,7.05,4.04,7.48,8.25.29,2.84-.22,3.52-2.83,3.06-6.37-1.13-12.71-2.41-19.34-3.68Z"/><path class="cls-6" d="M827.75,948.92c-2.75-6.89-.77-11.59,5.87-15.08,5.74-3.02,9.75-1.96,13.8,4.02-6.47,3.64-12.9,7.26-19.68,11.07Z"/><path class="cls-6" d="M611.78,1000.77c-.29,3.33-.45,6.67-1.42,9.88-1.73,5.74-6.24,8.69-12.18,8.02-6.54-.73-10.19-4.24-10.6-10.49-.33-5.01.3-10.02,1.32-14.89,1.37-6.5,5.66-9.2,12.53-8.55,6.6.62,9.83,3.88,10.33,10.55.14,1.82.02,3.65.02,5.48Z"/></svg>